<?xml version="1.0" encoding="utf-8"?>
<!-- Generator: Adobe Illustrator 16.0.0, SVG Export Plug-In . SVG Version: 6.00 Build 0)  -->
<!DOCTYPE svg PUBLIC "-//W3C//DTD SVG 1.1//EN" "http://www.w3.org/Graphics/SVG/1.1/DTD/svg11.dtd">
<svg version="1.1" id="Layer_1" xmlns="http://www.w3.org/2000/svg" xmlns:xlink="http://www.w3.org/1999/xlink" x="0px" y="0px"
	 width="142.999px" height="144px" viewBox="0 0 142.999 144" enable-background="new 0 0 142.999 144" xml:space="preserve">
<g>
	<g opacity="0.3">
		<path fill="#414042" d="M120.85,23.358C107.54,10.038,89.8,2.708,70.91,2.708c-18.89,0-36.63,7.33-49.94,20.65
			C7.65,36.678,0.31,54.408,0.31,73.298c0,18.9,7.34,36.63,20.66,49.94c13.31,13.319,31.05,20.66,49.94,20.66
			c18.89,0,36.63-7.341,49.939-20.66C148.38,95.708,148.38,50.898,120.85,23.358z M92.6,81.948l-7.779-38.7l-14.87,2.91l6.399,31.63
			l-13.32-3.23L26.34,37.868c1.32-1.65,2.76-3.27,4.31-4.82c10.74-10.74,25.04-16.66,40.26-16.66c15.22,0,29.52,5.92,40.26,16.66
			c14.74,14.74,20.25,37.06,14.13,57.03L92.6,81.948z M70.9,130.208c-15.22,0-29.52-5.92-40.26-16.65
			c-16.51-16.52-21.26-40.88-12.22-62.33l74.55,74.55C86.04,128.678,78.44,130.208,70.9,130.208z M111.17,113.558
			c-1.53,1.521-3.15,2.971-4.84,4.311l-22.47-22.48l34.939,8.71C116.62,107.488,114.05,110.668,111.17,113.558z"/>
	</g>
	<path fill="#FFFFFF" d="M121.598,22.431C108.418,9.245,90.862,1.988,72.165,1.988c-18.698,0-36.253,7.257-49.433,20.443
		C9.546,35.612,2.288,53.173,2.288,71.864c0,18.698,7.258,36.253,20.444,49.434c13.18,13.186,30.734,20.443,49.433,20.443
		c18.697,0,36.253-7.258,49.433-20.443C148.854,94.041,148.854,49.688,121.598,22.431z M31.4,31.1
		c10.873-10.873,25.346-16.863,40.765-16.863s29.893,5.991,40.765,16.863c15.214,15.213,20.648,37.95,14.111,58.402l-33.804-8.407
		l-7.729-38.438l-13.453,2.628l6.477,32.029l-14.61-3.546l-37.28-37.281C28.1,34.612,29.702,32.805,31.4,31.1z M121.194,102.203
		c-2.328,3.758-5.102,7.257-8.265,10.426c-1.684,1.685-3.491,3.28-5.396,4.759L82.777,92.63L121.194,102.203z M72.158,129.486
		c-15.418,0-29.892-5.984-40.765-16.857C14.462,95.691,9.82,70.27,19.439,48.538l76.045,76.046
		C88.188,127.801,80.184,129.486,72.158,129.486z"/>
	<path fill="#414042" d="M122.557,20.544C109.377,7.358,91.821,0.101,73.124,0.101c-18.698,0-36.253,7.257-49.433,20.443
		C10.505,33.725,3.248,51.287,3.248,69.977c0,18.699,7.257,36.255,20.444,49.434c13.18,13.188,30.734,20.445,49.433,20.445
		c18.697,0,36.253-7.258,49.433-20.445C149.812,92.153,149.812,47.802,122.557,20.544z M32.359,29.213
		C43.231,18.34,57.706,12.35,73.124,12.35c15.419,0,29.893,5.991,40.765,16.863C129.103,44.426,134.537,67.164,128,87.614
		l-33.803-8.405L86.468,40.77l-13.453,2.629l6.477,32.03L64.88,71.881L27.601,34.602C29.059,32.725,30.661,30.918,32.359,29.213z
		 M122.153,100.315c-2.328,3.759-5.102,7.258-8.265,10.428c-1.684,1.683-3.491,3.278-5.396,4.759L83.736,90.743L122.153,100.315z
		 M73.116,127.601c-15.418,0-29.892-5.985-40.764-16.857C15.421,93.804,10.778,68.382,20.398,46.652l76.045,76.044
		C89.145,125.915,81.143,127.601,73.116,127.601z"/>
</g>
</svg>
